<svg xmlns="http://www.w3.org/2000/svg" viewBox="0 0 250.345 169.052">
  <defs>
    <style>
      .cls-1 {
        fill: #fff;
      }
    </style>
  </defs>
  <g id="Group_1" data-name="Group 1" transform="translate(-39.409 -299.5)">
    <path id="cloud" class="cls-1" d="M163.443,40.69a41.25,41.25,0,0,0-4.885.295,34.187,34.187,0,0,0-32.61-24.154,33.554,33.554,0,0,0-10.962,1.83A44.283,44.283,0,0,0,30.51,37.282a43.63,43.63,0,0,0,1.328,10.656A37.494,37.494,0,0,0,37.327,122.5H163.443a40.9,40.9,0,0,0,0-81.806Zm0,74.988H37.327a30.656,30.656,0,0,1-.913-61.3,3.41,3.41,0,0,0,3.116-4.55,37.456,37.456,0,0,1,70.41-25.564,3.407,3.407,0,0,0,4.621,1.909,27.2,27.2,0,0,1,38.116,19.343,3.407,3.407,0,0,0,4.015,2.669,34.573,34.573,0,0,1,6.752-.675,34.085,34.085,0,1,1,0,68.17Zm0,0" transform="translate(39.409 346.055)"/>
    <path id="cloud-2" data-name="cloud" class="cls-1" d="M131.289,31.3a33.135,33.135,0,0,0-3.924.237,27.462,27.462,0,0,0-26.195-19.4,26.953,26.953,0,0,0-8.806,1.47A35.571,35.571,0,0,0,24.508,28.563a35.047,35.047,0,0,0,1.067,8.559C10.032,39.5,11.7,46.169,24.508,57.245s2.726,4.776,18.448,4.846l13.845,4.5L79.3,84.936l28.037,12.077h23.952a32.856,32.856,0,0,0,0-65.712Zm0,60.236H101.171l-21.87-6.6L56.8,66.591,40.88,59.668c-13.5.059-7.026,6.23-16.372-2.423S15.755,42.638,29.25,42.294a2.739,2.739,0,0,0,2.5-3.655A30.088,30.088,0,0,1,88.311,18.1a2.737,2.737,0,0,0,3.712,1.533,21.85,21.85,0,0,1,30.617,15.537,2.736,2.736,0,0,0,3.225,2.144,27.772,27.772,0,0,1,5.424-.542,27.38,27.38,0,1,1,0,54.759Zm0,0" transform="translate(125.609 306.539)"/>
    <ellipse id="Ellipse_1" data-name="Ellipse 1" class="cls-1" cx="33" cy="32.5" rx="33" ry="32.5" transform="translate(153 304)"/>
    <ellipse id="Ellipse_2" data-name="Ellipse 2" class="cls-1" cx="37.5" cy="36" rx="37.5" ry="36" transform="translate(180 321)"/>
    <ellipse id="Ellipse_3" data-name="Ellipse 3" class="cls-1" cx="19" cy="12" rx="19" ry="12" transform="translate(142 343)"/>
    <ellipse id="Ellipse_4" data-name="Ellipse 4" class="cls-1" cx="37.5" cy="31.5" rx="37.5" ry="31.5" transform="translate(211 339)"/>
  </g>
</svg>
